Coordinates
version=1
nRows=16
nColumns=22
inDegrees=yes

Units are S.I. units (second, meters, Newtons, ...)
If the header above contains a line with 'inDegrees', this indicates whether rotational values are in degrees (yes) or radians (no).

endheader
time	pelvis_tilt	pelvis_list	pelvis_rotation	pelvis_tx	pelvis_ty	pelvis_tz	hip_flexion_r	hip_adduction_r	hip_rotation_r	knee_angle_r	ankle_angle_r	subtalar_angle_r	hip_flexion_l	hip_adduction_l	hip_rotation_l	knee_angle_l	ankle_angle_l	subtalar_angle_l	lumbar_extension	lumbar_bending	lumbar_rotation
      3.03000000	     18.82224673	     -5.06126149	    133.02484784	      0.29988358	      0.87446321	     -0.31644524	     14.36456843	    -17.38348778	      6.90048259	    -44.78604025	     -0.84158239	      0.18922312	     19.44496628	      0.33019566	     13.45375787	    -15.29584531	     16.32500524	      6.68174853	     -2.92469254	      7.01294691	     12.16555374
      3.04000000	     18.97259520	     -4.55568163	    135.97659706	      0.30066052	      0.87384149	     -0.31518814	     14.66037953	    -17.13208326	      6.72935732	    -44.94056879	     -0.11209753	     -0.64052438	     19.98970926	      0.17813738	     12.26581976	    -16.02107509	     16.96454386	      4.56754628	     -2.90175051	      7.07458843	     11.28478568
      3.05000000	     19.05369402	     -3.99922516	    138.80383664	      0.30142598	      0.87348428	     -0.31406828	     14.93146806	    -16.83410708	      6.58951259	    -45.01337145	      0.60245376	     -1.46604595	     20.46464080	     -0.01303186	     11.12924683	    -16.74260685	     17.38775915	      2.48885789	     -2.95548510	      7.15552398	     10.47344830
      3.06000000	     19.05660901	     -3.41630864	    141.50702741	      0.30209982	      0.87333935	     -0.31300370	     15.18226586	    -16.51805235	      6.48606523	    -44.98652486	      1.25509530	     -2.18861207	     20.84152171	     -0.19483591	     10.19597919	    -17.39545114	     17.57724375	      0.63291353	     -3.06826996	      7.25206381	      9.72506919
      3.07000000	     18.97793439	     -2.80865112	    144.10369970	      0.30261550	      0.87337752	     -0.31192226	     15.39184257	    -16.19302114	      6.39544311	    -44.83822570	      1.83721913	     -2.72326663	     21.08899120	     -0.33044219	      9.62107117	    -17.93310583	     17.53441650	     -0.89901609	     -3.23664710	      7.37670328	      9.03428310
      3.08000000	     18.82349989	     -2.19201700	    146.60393813	      0.30301636	      0.87354757	     -0.31080356	     15.57219605	    -15.85766107	      6.33358429	    -44.57026334	      2.34728443	     -3.00968664	     21.22334114	     -0.38830541	      9.49422834	    -18.36730242	     17.31116684	     -2.07313024	     -3.44760377	      7.52145228	      8.38930165
      3.09000000	     18.61159140	     -1.56073611	    149.02847764	      0.30333239	      0.87380474	     -0.30964269	     15.72143724	    -15.49626627	      6.27981846	    -44.17157168	      2.76279476	     -3.04315263	     21.27584947	     -0.36945107	      9.84027151	    -18.74237131	     16.95671445	     -2.86710398	     -3.68309453	      7.70331115	      7.79008058
      3.10000000	     18.33871725	     -0.91391996	    151.37939245	      0.30366373	      0.87410057	     -0.30852521	     15.86152610	    -15.10137576	      6.22613380	    -43.69933461	      3.18665241	     -2.90505888	     21.24930216	     -0.28490512	     10.61879708	    -19.08155911	     16.58539353	     -3.41291290	     -3.95144945	      7.90788326	      7.22350535
      3.11000000	     18.02118550	     -0.25740924	    153.67762702	      0.30395228	      0.87439565	     -0.30746299	     15.96407204	    -14.68087573	      6.14646972	    -43.09383734	      3.61317086	     -2.66523026	     21.17379655	     -0.14451833	     11.76248037	    -19.42468722	     16.23556803	     -3.73431727	     -4.22092096	      8.14241174	      6.70311537
      3.12000000	     17.60406226	      0.45911712	    155.91512082	      0.30415590	      0.87481652	     -0.30653088	     15.94046305	    -14.20772032	      6.03265023	    -42.33769187	      4.04093345	     -2.19074164	     20.96211334	     -0.00510855	     13.13784934	    -19.76609241	     15.92388467	     -4.06441108	     -4.57142983	      8.42824380	      6.23827143
      3.13000000	     17.13355929	      1.17291432	    158.12478190	      0.30432040	      0.87521157	     -0.30569905	     15.88304888	    -13.73989779	      5.81315639	    -41.47981579	      4.47765783	     -1.74456215	     20.71637644	      0.15796915	     14.66855552	    -20.15519554	     15.69053324	     -4.11327493	     -4.91970781	      8.72793407	      5.77809767
      3.14000000	     16.57499264	      1.88150183	    160.28534158	      0.30441492	      0.87565215	     -0.30501179	     15.75453985	    -13.28749925	      5.50692314	    -40.51190143	      4.92887094	     -1.23659382	     20.39047399	      0.33087597	     16.23560844	    -20.58269782	     15.53481251	     -4.05614479	     -5.30610479	      9.02542520	      5.35069400
      3.15000000	     15.94382364	      2.55938486	    162.37751027	      0.30446642	      0.87611824	     -0.30450720	     15.58880539	    -12.86300793	      5.12406493	    -39.44896032	      5.38117876	     -0.68762910	     20.01723754	      0.50969218	     17.72498442	    -21.06850849	     15.44910180	     -3.92769554	     -5.71307649	      9.30189500	      4.97040937
      3.16000000	     15.26063514	      3.18761238	    164.36918119	      0.30452229	      0.87659131	     -0.30423493	     15.43165874	    -12.46496088	      4.69686242	    -38.31929064	      5.79905686	     -0.12799478	     19.63153208	      0.68930041	     19.02358501	    -21.63305049	     15.42401470	     -3.77908055	     -6.12712863	      9.54394817	      4.65684204
      3.17000000	     14.53834609	      3.75421051	    166.22869062	      0.30460150	      0.87704899	     -0.30423523	     15.31192672	    -12.09776132	      4.24465603	    -37.14737101	      6.18760082	      0.50079975	     19.25188004	      0.86629992	     20.01976202	    -22.28699901	     15.47644514	     -3.64291781	     -6.54685644	      9.74006918	      4.44400396
      3.18000000	     13.81454312	      4.26572892	    167.93472078	      0.30474616	      0.87744727	     -0.30450262	     15.27505547	    -11.73677676	      3.79805655	    -35.95754849	      6.51081986	      1.12144761	     18.91958385	      1.02540878	     20.63518952	    -23.03885702	     15.58330140	     -3.57627378	     -6.95005330	      9.90944948	      4.32503219
